<?xml version="1.0" encoding="utf-8"?>
<!-- Generator: Adobe Illustrator 26.3.1, SVG Export Plug-In . SVG Version: 6.00 Build 0)  -->
<svg version="1.1" id="Calque_1" xmlns="http://www.w3.org/2000/svg" xmlns:xlink="http://www.w3.org/1999/xlink" x="0px" y="0px"
	 viewBox="0 0 96 96" style="enable-background:new 0 0 96 96;" xml:space="preserve">
<style type="text/css">
	.st0{clip-path:url(#SVGID_00000143619010465303004230000008982078587748721539_);}
	.st1{clip-path:url(#SVGID_00000024709778343378234610000009185124197179687822_);}
	.st2{fill:#FFFFFF;filter:url(#Adobe_OpacityMaskFilter);}
	.st3{mask:url(#mask0_00000127762531671771644740000013890368379705986457_);}
	.st4{fill:url(#SVGID_00000183249415744641732830000006118387021038270092_);}
	.st5{fill:url(#SVGID_00000110443854679406501680000017677361328893196196_);}
	.st6{fill-opacity:0.24;}
	.st7{fill-opacity:0.32;}
	.st8{fill:url(#SVGID_00000126296038188445533510000017071625127297189528_);}
	.st9{fill:url(#SVGID_00000130618083417885291180000006552155009694753204_);}
</style>
<g>
	<defs>
		<rect id="SVGID_1_" width="96" height="96"/>
	</defs>
	<clipPath id="SVGID_00000098189699124206080130000008255735382532433821_">
		<use xlink:href="#SVGID_1_"  style="overflow:visible;"/>
	</clipPath>
	<g style="clip-path:url(#SVGID_00000098189699124206080130000008255735382532433821_);">
		<g>
			<defs>
				<rect id="SVGID_00000182521893093342476850000006984330943257702313_" width="96" height="96"/>
			</defs>
			<clipPath id="SVGID_00000090998423466023288990000004654104288155881607_">
				<use xlink:href="#SVGID_00000182521893093342476850000006984330943257702313_"  style="overflow:visible;"/>
			</clipPath>
			<g style="clip-path:url(#SVGID_00000090998423466023288990000004654104288155881607_);">
				<defs>
					<filter id="Adobe_OpacityMaskFilter" filterUnits="userSpaceOnUse" x="-3" y="-1" width="102" height="97.9">
						<feColorMatrix  type="matrix" values="1 0 0 0 0  0 1 0 0 0  0 0 1 0 0  0 0 0 1 0"/>
					</filter>
				</defs>
				
					<mask maskUnits="userSpaceOnUse" x="-3" y="-1" width="102" height="97.9" id="mask0_00000127762531671771644740000013890368379705986457_">
					<path class="st2" d="M51,1.3c-1.8-1.3-4.2-1.3-6,0l-42.7,32c-2.7,2-2.7,6,0,8l21.2,15.9l-8.9,6.7c-2.7,2-2.7,6,0,8L45,94.7
						c1.8,1.3,4.2,1.3,6,0l42.7-32c2.7-2,2.7-6,0-8L72.5,38.8l8.9-6.7c2.7-2,2.7-6,0-8L51,1.3z"/>
				</mask>
				<g class="st3">
					
						<linearGradient id="SVGID_00000082345990581492511590000010436327907079053971_" gradientUnits="userSpaceOnUse" x1="35.6002" y1="100.9843" x2="61.2804" y2="9.0708" gradientTransform="matrix(1 0 0 -1 0 98)">
						<stop  offset="0" style="stop-color:#A391E8"/>
						<stop  offset="1" style="stop-color:#685CD0"/>
					</linearGradient>
					<path style="fill:url(#SVGID_00000082345990581492511590000010436327907079053971_);" d="M9.2,67.9l51-38.2L99,58.7L48,97
						L9.2,67.9z"/>
					
						<linearGradient id="SVGID_00000139990194272426833710000010850797605099700647_" gradientUnits="userSpaceOnUse" x1="73.4492" y1="4.8779" x2="55.9492" y2="55.3778" gradientTransform="matrix(1 0 0 -1 0 98)">
						<stop  offset="0" style="stop-color:#38389F"/>
						<stop  offset="1" style="stop-color:#4B44C0"/>
					</linearGradient>
					<path style="fill:url(#SVGID_00000139990194272426833710000010850797605099700647_);" d="M23.5,57.2l36.7-27.5L99,58.7L65.3,84
						c-1.8,1.3-4.2,1.3-6,0L23.5,57.2z"/>
					<g>
						<path class="st6" d="M-3,37.7L48-0.6l38.8,29.1l-48,36c-1.8,1.3-4.2,1.3-6,0L-3,37.7z"/>
					</g>
					<g>
						<path class="st7" d="M-3,39.3L48,1l38.8,29.1l-48,36c-1.8,1.3-4.2,1.3-6,0L-3,39.3z"/>
					</g>
					
						<linearGradient id="SVGID_00000111905983146346493500000013709350373975694002_" gradientUnits="userSpaceOnUse" x1="27.3604" y1="107.8002" x2="52.2261" y2="35.0225" gradientTransform="matrix(1 0 0 -1 0 98)">
						<stop  offset="0" style="stop-color:#DBCEF8"/>
						<stop  offset="1" style="stop-color:#C0AFF1"/>
					</linearGradient>
					<path style="fill:url(#SVGID_00000111905983146346493500000013709350373975694002_);" d="M-3,37.3L48-1l38.8,29.1l-48,36
						c-1.8,1.3-4.2,1.3-6,0L-3,37.3z"/>
					
						<linearGradient id="SVGID_00000092446227499881011720000001108596285168113803_" gradientUnits="userSpaceOnUse" x1="23.0888" y1="101.5623" x2="49.8636" y2="5.9382" gradientTransform="matrix(1 0 0 -1 0 98)">
						<stop  offset="0" style="stop-color:#C0AFF1"/>
						<stop  offset="1" style="stop-color:#8675DD"/>
					</linearGradient>
					<path style="fill:url(#SVGID_00000092446227499881011720000001108596285168113803_);" d="M-3,37.3L30.7,12c1.8-1.3,4.2-1.3,6,0
						l35.8,26.8L38.8,64.1c-1.8,1.3-4.2,1.3-6,0L-3,37.3z"/>
				</g>
			</g>
		</g>
	</g>
</g>
</svg>
